<?xml version="1.0" encoding="utf-8"?>
<!-- Generator: Adobe Illustrator 16.0.0, SVG Export Plug-In . SVG Version: 6.00 Build 0)  -->
<!DOCTYPE svg PUBLIC "-//W3C//DTD SVG 1.0//EN" "http://www.w3.org/TR/2001/REC-SVG-20010904/DTD/svg10.dtd">
<svg version="1.0" id="Layer_1" xmlns="http://www.w3.org/2000/svg" xmlns:xlink="http://www.w3.org/1999/xlink" x="0px" y="0px"
	 width="100px" height="100px" viewBox="0 0 100 100" enable-background="new 0 0 100 100" xml:space="preserve">
<rect x="56.667" y="70" fill="#212121" width="13.333" height="6.667"/>
<rect x="56.667" y="56.667" fill="#212121" width="13.333" height="6.666"/>
<path fill="#212121" d="M23.333,76.667V70c0-3.665,3-6.667,6.667-6.667h13.333C47,63.333,50,66.335,50,70v6.667H23.333z"/>
<path fill="#2196F3" d="M50,10v40h40V10H50z M83.333,43.333H56.667V16.667h26.666V43.333z"/>
<polygon fill="#212121" points="50,30 10,30 10,90 83.333,90 83.333,50 76.667,50 76.667,83.333 16.667,83.333 16.667,36.667 
	50,36.667 "/>
<polygon fill="#2196F3" points="78.333,27.083 72.917,27.083 72.917,21.667 67.083,21.667 67.083,27.083 61.667,27.083 
	61.667,32.917 67.083,32.917 67.083,38.333 72.917,38.333 72.917,32.917 78.333,32.917 "/>
<circle fill="#212121" cx="36.667" cy="50" r="6.667"/>
</svg>
