<?xml version="1.0" encoding="utf-8"?>
<!-- Generator: Adobe Illustrator 16.0.0, SVG Export Plug-In . SVG Version: 6.00 Build 0)  -->
<!DOCTYPE svg PUBLIC "-//W3C//DTD SVG 1.0//EN" "http://www.w3.org/TR/2001/REC-SVG-20010904/DTD/svg10.dtd">
<svg version="1.0" id="Layer_1" xmlns="http://www.w3.org/2000/svg" xmlns:xlink="http://www.w3.org/1999/xlink" x="0px" y="0px"
	 width="100px" height="100px" viewBox="0 0 100 100" enable-background="new 0 0 100 100" xml:space="preserve">
<path fill="#2196F3" d="M43.333,23.334c-5.521,0-10,4.476-10,10c0,5.521,4.479,10,10,10c5.522,0,10-4.479,10-10
	C53.333,27.81,48.855,23.334,43.333,23.334z M43.333,36.667c-1.84,0-3.332-1.494-3.332-3.333S41.493,30,43.333,30
	c1.841,0,3.333,1.495,3.333,3.334S45.172,36.667,43.333,36.667z"/>
<path fill="#212121" d="M89.024,81.96L70.152,63.076c4.077-5.53,6.514-12.344,6.514-19.742C76.666,24.925,61.748,10,43.333,10
	C24.925,10,10,24.925,10,43.334c0,18.411,14.925,33.333,33.333,33.333c7.406,0,14.216-2.438,19.746-6.521l18.884,18.877
	c1.295,1.303,3.418,1.303,4.713,0l2.351-2.354C90.325,85.378,90.325,83.256,89.024,81.96z M43.333,70
	c-14.729,0-26.667-11.939-26.667-26.666c0-14.73,11.938-26.667,26.667-26.667S70,28.604,70,43.334C70,58.061,58.062,70,43.333,70z"
	/>
<path fill="#2196F3" d="M33.333,56.667h20c1.807,0,3.333,1.526,3.333,3.333v6.424c2.511-1.453,4.761-3.301,6.667-5.462V60
	c0-5.501-4.495-10-10-10h-20c-5.5,0-9.998,4.499-9.998,10v0.964c1.905,2.16,4.155,4.008,6.665,5.46V60
	C30,58.193,31.527,56.667,33.333,56.667z"/>
</svg>
