<?xml version="1.0" encoding="utf-8"?>
<!-- Generator: Adobe Illustrator 16.0.0, SVG Export Plug-In . SVG Version: 6.00 Build 0)  -->
<!DOCTYPE svg PUBLIC "-//W3C//DTD SVG 1.0//EN" "http://www.w3.org/TR/2001/REC-SVG-20010904/DTD/svg10.dtd">
<svg version="1.0" id="Layer_1" xmlns="http://www.w3.org/2000/svg" xmlns:xlink="http://www.w3.org/1999/xlink" x="0px" y="0px"
	 width="100px" height="100px" viewBox="0 0 100 100" enable-background="new 0 0 100 100" xml:space="preserve">
<path fill="#212121" d="M83.333,13.334H16.667c-3.666,0-6.667,3-6.667,6.666v60c0,3.666,3.001,6.666,6.667,6.666h66.666
	c3.666,0,6.667-3,6.667-6.666V20C90,16.334,86.999,13.334,83.333,13.334z M83.333,80H16.667V20h66.666V80z"/>
<rect x="23.333" y="26.668" fill="#2196F3" width="13.334" height="6.667"/>
<rect x="43.333" y="26.668" fill="#2196F3" width="13.334" height="6.667"/>
<rect x="63.333" y="26.668" fill="#2196F3" width="13.334" height="6.667"/>
<rect x="23.333" y="40" fill="#2196F3" width="13.334" height="6.668"/>
<rect x="43.333" y="40" fill="#2196F3" width="13.334" height="6.668"/>
<rect x="63.333" y="40" fill="#2196F3" width="13.334" height="6.668"/>
<rect x="23.333" y="53.335" fill="#2196F3" width="13.334" height="6.665"/>
<rect x="63.333" y="53.335" fill="#2196F3" width="13.334" height="6.665"/>
<rect x="23.333" y="66.666" fill="#2196F3" width="13.334" height="6.669"/>
</svg>
