<?xml version="1.0" encoding="utf-8"?>
<!-- Generator: Adobe Illustrator 24.0.0, SVG Export Plug-In . SVG Version: 6.00 Build 0)  -->
<svg version="1.1" id="Layer_1" xmlns="http://www.w3.org/2000/svg" xmlns:xlink="http://www.w3.org/1999/xlink" x="0px" y="0px"
	 viewBox="0 0 100 100" style="enable-background:new 0 0 100 100;" xml:space="preserve">
<style type="text/css">
	.st0{fill:#2196F3;}
	.st1{fill:#212121;}
</style>
<rect x="26.7" y="50" class="st0" width="26.7" height="6.7"/>
<rect x="26.7" y="63.3" class="st0" width="20" height="6.7"/>
<rect x="26.7" y="36.7" class="st0" width="33.3" height="6.7"/>
<rect x="26.7" y="23.3" class="st1" width="26.7" height="6.7"/>
<path class="st1" d="M46.7,76.7H20v-60h46.7v26.7h6.7V16.7c0-3.7-3-6.7-6.7-6.7H20c-3.7,0-6.7,3-6.7,6.7v60c0,3.7,3,6.7,6.7,6.7
	h26.7V76.7z"/>
<path class="st0" d="M73,66.7h-6.7c-1.8,0-3.3-1.5-3.3-3.3h0l0,0c0-1.8,1.5-3.3,3.3-3.3v0v0H73c1.8,0,3.3,1.5,3.3,3.3H83
	c0-5.5-4.5-10-10-10v-7.5h-6.7v7.5v0c-5.5,0-10,4.5-10,10v0c0,5.5,4.5,10,10,10H73c1.8,0,3.3,1.5,3.3,3.3h0c0,1.8-1.5,3.3-3.3,3.3
	h-6.7c-1.8,0-3.3-1.5-3.3-3.3h-6.7c0,5.5,4.5,10,10,10v7.5H73v-7.5c5.5,0,10-4.5,10-10h0C83,71.1,78.5,66.7,73,66.7z"/>
</svg>
