<?xml version="1.0" encoding="utf-8"?>
<!-- Generator: Adobe Illustrator 16.0.0, SVG Export Plug-In . SVG Version: 6.00 Build 0)  -->
<!DOCTYPE svg PUBLIC "-//W3C//DTD SVG 1.0//EN" "http://www.w3.org/TR/2001/REC-SVG-20010904/DTD/svg10.dtd">
<svg version="1.0" id="Layer_1" xmlns="http://www.w3.org/2000/svg" xmlns:xlink="http://www.w3.org/1999/xlink" x="0px" y="0px"
	 width="100px" height="100px" viewBox="0 0 100 100" enable-background="new 0 0 100 100" xml:space="preserve">
<path fill="#2196F3" d="M56.667,63.334H43.333c-1.832,0-3.333,1.5-3.333,3.332v20.001C40,88.499,41.501,90,43.333,90h13.334
	C58.499,90,60,88.499,60,86.667V66.666C60,64.834,58.499,63.334,56.667,63.334z M53.333,83.333h-6.666V70h6.666V83.333z"/>
<path fill="#2196F3" d="M86.667,63.334H73.333c-1.832,0-3.333,1.5-3.333,3.332v20.001C70,88.499,71.501,90,73.333,90h13.334
	C88.499,90,90,88.499,90,86.667V66.666C90,64.834,88.499,63.334,86.667,63.334z M83.333,83.333h-6.666V70h6.666V83.333z"/>
<path fill="#2196F3" d="M56.667,10H43.333C41.501,10,40,11.5,40,13.333v20c0,1.833,1.501,3.333,3.333,3.333l13.334,0
	c1.832,0,3.333-1.5,3.333-3.333v-20C60,11.5,58.499,10,56.667,10z M53.333,30h-6.666V16.667h6.666V30z"/>
<path fill="#2196F3" d="M26.667,63.334l-13.334-0.001c-1.832,0-3.333,1.5-3.333,3.332v20.001C10,88.499,11.501,90,13.333,90h13.334
	C28.499,90,30,88.499,30,86.667V66.666C30,64.834,28.499,63.334,26.667,63.334z M23.333,83.333h-6.666V70h6.666V83.333z"/>
<path fill="#212121" d="M53.333,63.334v-10h23.334v10h6.666v-10c0-3.683-2.983-6.667-6.666-6.667H53.333v-10l-6.666,0v10H23.333
	c-3.682,0-6.666,2.984-6.666,6.667v10l6.666,0.001v-10h23.334v10H53.333z"/>
</svg>
