<?xml version="1.0" encoding="utf-8"?>
<!-- Generator: Adobe Illustrator 24.0.0, SVG Export Plug-In . SVG Version: 6.00 Build 0)  -->
<svg version="1.1" id="Layer_1" xmlns="http://www.w3.org/2000/svg" xmlns:xlink="http://www.w3.org/1999/xlink" x="0px" y="0px"
	 viewBox="0 0 331.9 94.8" style="enable-background:new 0 0 331.9 94.8;" xml:space="preserve">
<style type="text/css">
	.st0{fill:#027BFF;}
	.st1{font-family:'Poppins-SemiBold';}
	.st2{font-size:6px;}
</style>
<g>
	<path d="M48,50.7H28.9v19h-9V35.6h9v15.2H48V35.6h9v34.2h-9V50.7z"/>
	<path d="M62.6,35.6l9,0v34.2h-9V35.6z"/>
	<path d="M86.2,69.8h-9V34.3h9v5.5c2.2-3.6,6-6,10.9-6v9.4h-2.4c-5.3,0-8.5,2-8.5,8.9V69.8z"/>
	<path d="M115.3,70.3c-10.3,0-17.8-7.2-17.8-18.3c0-11.2,7.3-18.3,17.8-18.3c10.2,0,17.5,7,17.5,17.5c0,1.2-0.1,2.3-0.3,3.5h-25.9
		c0.4,5.2,4,8.2,8.5,8.2c3.8,0,6-1.9,7.1-4.3h9.7C130,65.1,124.1,70.3,115.3,70.3z M106.7,48.7h16.8c-0.1-4.7-3.8-7.6-8.4-7.6
		C110.8,41.1,107.4,43.8,106.7,48.7z"/>
	<path class="st0" d="M151.6,70.2c-9.3,0-16.4-4.9-16.6-13.3h9.6c0.3,3.6,2.6,6,6.8,6c4.2,0,6.7-2.2,6.7-5.4c0-9.7-23-3.8-23-20
		c0-8.1,6.5-12.9,15.7-12.9c9.2,0,15.4,4.7,16,12.7H157c-0.2-2.9-2.6-5.2-6.4-5.3c-3.5-0.1-6.1,1.6-6.1,5.2c0,9,22.9,4,22.9,19.7
		C167.4,63.9,161.7,70.2,151.6,70.2z"/>
	<path class="st0" d="M187.4,70.3c-10.3,0-17.8-7.2-17.8-18.3c0-11.2,7.3-18.3,17.8-18.3c10.2,0,17.5,7,17.5,17.5
		c0,1.2-0.1,2.3-0.3,3.5h-25.9c0.4,5.2,4,8.2,8.5,8.2c3.8,0,6-1.9,7.1-4.3h9.7C202.1,65.1,196.2,70.3,187.4,70.3z M178.8,48.7h16.8
		c-0.1-4.7-3.8-7.6-8.4-7.6C182.9,41.1,179.5,43.8,178.8,48.7z"/>
	<path class="st0" d="M233,50.2c0-5.7-3.1-8.8-7.9-8.8c-4.9,0-8,3.1-8,8.8v19.6h-9V34.3h9v4.4c2.3-3,6.1-4.9,10.7-4.9
		c8.3,0,14.1,5.4,14.1,15.2v20.8h-9V50.2z"/>
	<path class="st0" d="M260.9,70.3c-8.9,0-15.1-5.2-15.5-11.8h9c0.3,2.7,2.8,4.7,6.4,4.7c3.5,0,5.4-1.6,5.4-3.6c0-6.3-20-2.3-20-15.3
		c0-5.9,5.2-10.6,14-10.6c8.6,0,13.8,4.7,14.3,11.7h-8.6c-0.3-2.8-2.4-4.6-6-4.6c-3.3,0-5.1,1.3-5.1,3.4c0,6.5,19.6,2.4,19.9,15.4
		C274.8,65.7,269.5,70.3,260.9,70.3z"/>
	<path class="st0" d="M294.5,70.3c-10.3,0-17.8-7.2-17.8-18.3c0-11.2,7.3-18.3,17.8-18.3c10.2,0,17.5,7,17.5,17.5
		c0,1.2-0.1,2.3-0.3,3.5h-25.9c0.4,5.2,4,8.2,8.5,8.2c3.8,0,6-1.9,7.1-4.3h9.7C309.1,65.1,303.2,70.3,294.5,70.3z M285.8,48.7h16.8
		c-0.1-4.7-3.8-7.6-8.4-7.6C289.9,41.1,286.5,43.8,285.8,48.7z"/>
</g>
<rect x="62.6" y="25.1" width="9" height="8.5"/>
<rect x="48" y="25.1" class="st0" width="9" height="8.5"/>
<rect x="19.9" y="25.1" class="st0" width="9" height="8.5"/>
<path d="M48,50.8L48,50.8c-6.3,2-12.9,2-19,0l-0.1,0v-6.5l0.1,0c6.2,1.9,12.8,1.9,19,0l0.1,0V50.8z"/>
<text transform="matrix(1 0 0 1 311.9514 33.7881)" class="st1 st2">TM</text>
</svg>
