<?xml version="1.0" encoding="utf-8"?>
<!-- Generator: Adobe Illustrator 24.0.0, SVG Export Plug-In . SVG Version: 6.00 Build 0)  -->
<svg version="1.1" id="Layer_1" xmlns="http://www.w3.org/2000/svg" xmlns:xlink="http://www.w3.org/1999/xlink" x="0px" y="0px"
	 viewBox="0 0 36.6 48.8" style="enable-background:new 0 0 36.6 48.8;" xml:space="preserve">
<style type="text/css">
	.st0{fill:#000;}
	.st1{fill:#EE3E36;}
</style>
<g transform="translate(0 -7.464)">
	<g transform="translate(8.223 42.201)">
		<path class="st0" d="M3.2,5H1.6v2.3c0,0.3-0.1,0.5-0.2,0.8c-0.3,0.3-0.8,0.3-1.2,0c0,0,0,0,0,0C0.1,7.8,0,7.6,0,7.3V1
			c0-0.3,0.1-0.6,0.2-0.8C0.5,0.1,0.8,0,1,0h2.1c0.5,0,1,0,1.4,0.1c0.3,0.1,0.6,0.2,0.9,0.5C5.7,0.8,5.9,1.1,6,1.4
			c0.1,0.3,0.2,0.7,0.2,1.1c0,0.7-0.2,1.4-0.8,1.9C4.8,4.8,4,5,3.2,5z M2.8,1.2H1.6v2.5h1.1c0.3,0,0.7,0,1-0.1
			C4,3.5,4.2,3.4,4.3,3.2C4.5,3,4.6,2.7,4.5,2.5c0-0.3-0.1-0.6-0.3-0.9C3.8,1.3,3.3,1.2,2.8,1.2L2.8,1.2z"/>
		<path class="st0" d="M8.6,0h2.1c0.5,0,1,0,1.4,0.2c0.4,0.1,0.8,0.3,1.1,0.6c0.9,0.9,1.4,2.1,1.3,3.3c0,0.4,0,0.9-0.1,1.3
			c-0.1,0.4-0.2,0.7-0.4,1.1c-0.2,0.3-0.4,0.6-0.7,0.9c-0.2,0.2-0.5,0.4-0.7,0.5c-0.3,0.1-0.5,0.2-0.8,0.2c-0.3,0.1-0.7,0.1-1,0.1
			H8.6C8.4,8.2,8.2,8.1,8,8C7.8,7.9,7.7,7.8,7.7,7.6C7.6,7.4,7.6,7.2,7.6,7V1C7.5,0.5,7.8,0.1,8.3,0C8.4,0,8.5,0,8.6,0L8.6,0z
			 M9.2,1.3v5.5h1.2c0.3,0,0.5,0,0.6,0c0.2,0,0.3-0.1,0.5-0.1c0.2-0.1,0.3-0.1,0.4-0.2C12.7,5.8,13,4.9,12.9,4
			c0-0.6-0.1-1.2-0.4-1.8c-0.2-0.4-0.5-0.6-0.9-0.8c-0.4-0.1-0.9-0.2-1.3-0.2L9.2,1.3z"/>
		<path class="st0" d="M20.9,1.3h-3.2v2.1h2.7c0.2,0,0.4,0,0.6,0.2C21,3.6,21.1,3.8,21.1,4c0,0.2-0.1,0.3-0.2,0.4
			c-0.2,0.1-0.4,0.2-0.6,0.2h-2.7v2.7c0,0.3-0.1,0.5-0.2,0.8c-0.3,0.3-0.9,0.3-1.2,0c0,0,0,0,0,0C16,7.8,16,7.6,16,7.3V1
			c0-0.2,0-0.4,0.1-0.6c0.1-0.1,0.2-0.3,0.3-0.3C16.6,0,16.8,0,17,0h3.9c0.2,0,0.4,0,0.6,0.2c0.1,0.1,0.2,0.3,0.2,0.5
			c0,0.2-0.1,0.3-0.2,0.5C21.3,1.2,21.1,1.3,20.9,1.3z"/>
	</g>
	<g transform="translate(5.043 13.071)">
		<path class="st1" d="M2,26.5c-0.8,0-1.5-0.4-1.9-1.2c-0.5-1.2,0.2-2.9,2-4.6c1.6-1.5,3.6-2.6,5.7-3.3c1.2-2.3,2.3-4.7,3.3-7.1
			C9.5,7.9,8.9,4.9,9.6,2c0.2-0.9,0.8-1.6,1.7-1.9c0.7-0.3,1.5-0.1,2,0.5c0.8,0.8,1.1,2.6,0.9,5.2c-0.2,1.5-0.5,2.9-1,4.2l0.1,0.1
			c0.4,0.5,0.9,1.1,1.3,1.6c1,1.2,2.1,2.6,3.2,3.9c0.3,0,0.7,0,1,0c4,0,6.7,0.8,7.5,2.3c0.4,0.6,0.4,1.4,0,2
			c-0.6,0.9-1.7,1.4-2.8,1.3l0,0c-0.3,0-0.6,0-0.9-0.1c-1.6-0.3-3.4-1.5-5.5-3.8c-0.6,0-1.1,0.1-1.7,0.1c-2.1,0.2-4.2,0.6-6.2,1.2
			c-1.1,1.9-3.4,5.8-5.1,6.9C3.4,26.2,2.7,26.4,2,26.5z M6.4,19.9c-1.1,0.5-2.1,1.2-3,2c-1.6,1.5-1.7,2.5-1.6,2.7
			c0,0.1,0.1,0.1,0.2,0.1c0.3,0,0.7-0.2,1-0.4C4.3,23.1,5.5,21.6,6.4,19.9z M19.4,17.5c0.9,1,2.1,1.7,3.4,2.1c0.2,0,0.4,0.1,0.6,0.1
			l0,0c0.5,0.1,1-0.1,1.3-0.5c0,0,0.1-0.1,0-0.2C24.4,18.4,22.9,17.6,19.4,17.5L19.4,17.5z M12.3,12c-0.6,1.5-1.4,3.1-2.2,4.7
			c1.6-0.4,3.2-0.7,4.9-0.8l0.4,0c-0.8-1-1.6-2-2.4-2.9C12.8,12.6,12.6,12.3,12.3,12L12.3,12z M11.9,1.8C11.8,1.8,11.8,1.8,11.9,1.8
			c-0.3,0.1-0.5,0.4-0.6,0.8c-0.4,1.8-0.2,3.8,0.6,5.5c0.2-0.8,0.4-1.6,0.5-2.4C12.6,2.7,12.1,2,11.9,1.8
			C11.9,1.8,11.9,1.8,11.9,1.8L11.9,1.8z"/>
	</g>
</g>
</svg>
